<svg width="442" height="141" xmlns="http://www.w3.org/2000/svg"><g fill="#ffffff" fill-rule="evenodd"><path d="M156.166 48.725v25.381l-24.362-25.268-.101-.113h-3.205v42.173h8.75V65.793l24.08 24.987.114.118h3.458V48.725h-8.734M185.298 90.897h8.712V48.691h-8.712zM228.493 48.725l-16.052 41.626-.207.547h9.334l2.388-6.347h17.572l2.39 6.347 9.314-.034-16.147-41.895-.095-.244h-8.497zm4.451 12.111l5.493 14.68-11.248.133 5.755-14.813zM298.983 48.725v25.381l-24.362-25.268-.109-.113h-3.197v42.173h8.745V65.793l24.077 24.987.117.118h3.459V48.725h-8.73M325.804 48.725v8.522h13.292v33.651h8.738V57.247h13.302v-8.522h-35.332M379.46 90.897h8.705V48.691h-8.705zM435.267 78.635c-2.535 2.126-4.483 3.197-7.957 3.197-3.454 0-6.285-1.101-8.396-3.281-2.115-2.173-3.192-5.162-3.214-8.875 0-3.471 1.071-6.352 3.177-8.552 2.106-2.217 4.927-3.348 8.386-3.365 3.405 0 5.375 1.089 8.004 3.232l.277.222 5.821-6.604-.293-.264c-4.116-3.73-8.029-5.621-13.809-5.621-5.714 0-10.576 2.041-14.444 6.058-3.869 4.031-5.844 9.058-5.856 14.951 0 6.016 1.967 11.099 5.839 15.104 3.88 3.991 8.739 6.038 14.461 6.06 5.773 0 9.691-1.893 13.809-5.611l.293-.262-5.821-6.624-.277.235M85.649 50.201a34.893 34.893 0 002.751-8.772c8.57 4.393 12.518 7.689 13.229 9.048-1.463.78-6.829 1.045-15.98-.276zM50.038 23.41c-8.334 2.654-16.25 5.579-23.232 8.561.389-12.738 9.005-22.923 19.588-22.923 5.752 0 10.926 3.007 14.513 7.797.676.902 1.276 1.884 1.83 2.906-7.017 1.861-12.184 3.495-12.699 3.659zM5.987 20.02c1.368-.702 6.496-1.101 16.02.27a34.918 34.918 0 00-2.802 8.753c-8.243-4.217-12.475-7.54-13.218-9.023zm23.582 40.785a35.34 35.34 0 007.913 5.665l3.947 30.31c-.166-.075-.323-.151-.495-.225a29.672 29.672 0 00-1.612-.64l-.026-.01c-.286-.102-.577-.189-.865-.284l-9.955-34.159c-.19-.653.599-1.126 1.093-.657zm17.813 16.124l.166.674c.155.597.689 1.297 1.892 1.297h8.705c1.203 0 1.737-.7 1.892-1.297l.166-.674c.743-3.227 2.553-6.803 6.791-9.001l-3.52 27.034c-6.531-4.361-12.457-4.983-14.589-5.053a.56.56 0 00-.058 0c-.413.019-.726.377-.669.776l1.688 11.616c.006.039-.042.061-.071.034a29.162 29.162 0 00-4.975-3.79l-.002-.002-.239-.139-3.968-30.475c4.238 2.198 6.048 5.773 6.791 9zm30.634-16.124c.494-.469 1.283.004 1.093.657L68.228 98.798a36.557 36.557 0 00-1.634-1.482c-.002-.002-.004-.001-.003-.004v-.002c-.157-.132-.304-.25-.455-.374l3.967-30.466a35.34 35.34 0 007.913-5.665zm-11.405 41.379c-1.83 4.321-6.647 7.502-11.718 8.5-.191.038-.391-.027-.418-.211l-2.396-16.489c-.028-.192.151-.345.351-.305 3.839.758 10.335 4.169 13.943 7.818.304.307.28.588.238.687zm-6.724 20.319l-12.104.658-1.122-8.617 1.413-.143 3.437-.347a.043.043 0 01.048.035l.33 2.276c.051.348.372.598.736.582l.042-.003 6.966-.7v-.003l1.084-.108-.83 6.37zm-24.505-10.091a.23.23 0 01-.254-.183l-2.59-14.344c-.027-.145.103-.276.256-.257 7.289.921 14.455 5.447 17.884 11.068.086.142.141.296.164.458l.225 1.549c.009.067-.041.126-.112.133l-15.573 1.576zm53.555-76.716c.001-.124.014-.246.014-.371 0-.175-.018-.346-.02-.52 13.346-6.464 19.412-12.002 17.991-16.465-.836-2.623-3.991-4.073-9.379-4.309a38.911 38.911 0 00-1.662-.034c-3.865 0-8.45.523-13.199 1.32C76.334 6.168 65.771.167 53.792.167 41.818.167 31.248 6.158 24.9 15.301 10.267 12.854 2.118 13.867.697 18.331-.121 20.9.443 25.194 14.713 32.802c1.243.662 2.569 1.329 3.934 1.997-.002.176-.013.35-.013.526 0 .124.007.246.009.369-1.368.67-2.683 1.339-3.93 2.003C.443 45.304-.121 49.599.697 52.167c1.382 4.341 9.121 5.42 22.996 3.228l11.462 39.332a24.19 24.19 0 00-1.459-.265l-.03-.004a24.886 24.886 0 00-4.586-.241h-.002a.585.585 0 00-.562.676l3.717 20.577a.587.587 0 00.65.468l8.05-.815.161-.016 2.416 8.288-.655.035c-1.217.05-1.641-.189-2.359-.723-.802-.598-1.007-1.128-2.113-1.069l-7.398.316a.633.633 0 00-.608.636c.008 2.965 1.506 12.564 7.606 12.888.433.023 1.022.004 1.733-.002 1.988 4.465 6.06 3.943 7.228 3.838 3.772-.336 23.375-6.609 25.303-8.042 1.973-1.465 3.999-6.487 3.999-6.487s5.873-2.016 9.064-2.932c.427-.123.316-.755-.128-.727l-20.775 1.131 1.949-6.69 1.518-.152 10.178-1.023c.324-.034.524-.364.396-.649-2.17-4.814-4.635-8.652-7.201-11.722-.236-.284-.471-.539-.708-.807l12.117-41.577c-9.339-1.403-19.639-4.035-26.658-6.006-2.839 1.941-6.113 3.053-9.604 3.053-7.332 0-13.712-4.896-17.076-12.134-1.222-.486-2.465-.99-3.719-1.512a163.708 163.708 0 00-5.438 2.549 34.827 34.827 0 001.784 4.63c-9.484 1.36-14.593.961-15.958.262C7.4 47.657 21.396 38.192 51.675 28.55c30.275-9.641 47.169-10.012 49.954-8.529-.711 1.361-4.666 4.662-13.255 9.061a35.032 35.032 0 00-1.041-4.322c-5.75.766-12.999 2.167-21.582 4.405.156 1.209.256 2.44.256 3.701 0 4.577-1.084 8.834-2.928 12.462a287.772 287.772 0 01-11.404-3.38A283.934 283.934 0 0139 37.591a233.784 233.784 0 00-7.444 2.898c5.746 2.297 11.985 4.531 18.482 6.599 1.247.397 29.759 9.414 45.843 9.414.569 0 1.126-.012 1.662-.035 5.388-.236 8.543-1.685 9.379-4.309 1.421-4.462-4.643-9.999-17.985-16.462z"/></g></svg>
